<svg width="27" height="27" viewBox="0 0 27 27" fill="none" xmlns="http://www.w3.org/2000/svg">
<path d="M21.9375 10.9688C21.9375 13.3893 21.1518 15.6252 19.8281 17.4393L26.5043 24.1207C27.1635 24.7799 27.1635 25.8504 26.5043 26.5096C25.8451 27.1688 24.7746 27.1688 24.1154 26.5096L17.4393 19.8281C15.6252 21.157 13.3893 21.9375 10.9687 21.9375C4.90957 21.9375 0 17.0279 0 10.9688C0 4.90957 4.90957 0 10.9687 0C17.0279 0 21.9375 4.90957 21.9375 10.9688ZM10.9687 18.5625C15.1611 18.5625 18.5625 15.1611 18.5625 10.9688C18.5625 6.77637 15.1611 3.375 10.9687 3.375C6.77637 3.375 3.375 6.77637 3.375 10.9688C3.375 15.1611 6.77637 18.5625 10.9687 18.5625Z" fill="white"/>
</svg>
